<?xml version="1.0" encoding="utf-8"?>
<!-- Generator: Adobe Illustrator 21.1.0, SVG Export Plug-In . SVG Version: 6.00 Build 0)  -->
<svg version="1.1" id="Layer_1" xmlns="http://www.w3.org/2000/svg" xmlns:xlink="http://www.w3.org/1999/xlink" x="0px" y="0px"
	 viewBox="0 0 700 700" style="enable-background:new 0 0 700 700;" xml:space="preserve">
<style type="text/css">
	.st0{fill:#79A045;}
	.st1{fill:#194C4B;}
	.st2{fill:#48947B;}
</style>
<g>
	<path class="st0" d="M116.2,155.9h-9.6v-8.7c-3,6.2-8.6,8.9-15.8,9c-10.2,0-16.3-6.5-16.3-17.1v-27.6h9.6v24.9
		c0,6.7,3.9,10.8,10.3,10.8c7.7-0.2,12.2-6.1,12.2-13.8v-21.9h9.6V155.9z"/>
	<path class="st0" d="M185.6,128.3v27.6H176V131c0-6.7-4-10.8-10.7-10.8c-7.3,0.1-11.9,5.2-12.6,12.1v23.6h-9.6v-44.4h9.6v8.5
		c3.2-6.2,8.8-8.8,16.3-8.8C179.4,111.2,185.6,117.7,185.6,128.3z"/>
	<path class="st0" d="M239.9,115.6l-3.5,7.1c-3.9-2.4-8.8-3.9-12.8-3.9c-3.8,0-6.5,1.2-6.5,4.4c0,8.2,23.6,3.7,23.5,19.9
		c0,9.1-8.1,13.2-17,13.2c-6.5,0-13.4-2.2-17.8-6.2l3.4-6.8c3.8,3.4,10,5.5,14.8,5.5c4.1,0,7.3-1.4,7.3-4.8c0-9.1-23.4-4-23.3-20
		c0-9,7.8-12.8,16.3-12.8C230,111.1,235.9,112.8,239.9,115.6z"/>
	<path class="st0" d="M302.1,137.4h-33.5c1.5,6.8,6.8,11.1,13.8,11.1c4.8,0,9.3-1.8,12.5-5.2l5.1,5.4c-4.3,4.8-10.7,7.5-18.3,7.5
		c-13.7,0-22.7-9.1-22.7-22.4c0-13.4,9.3-22.5,22.4-22.6C296.9,111.2,303.2,121.4,302.1,137.4z M293.7,130.4
		c-0.3-7.2-5.1-11.5-12.3-11.5c-7,0-11.9,4.4-13,11.5H293.7z"/>
	<path class="st0" d="M351.4,150.5c-3.2,3.9-8.3,5.8-14.7,5.8c-9.6,0-15.6-5.9-15.6-13.8c0-8.1,6.1-13.3,16.8-13.3h13.4v-1.3
		c0-5.6-3.6-8.9-10.6-8.9c-4.3,0-8.7,1.5-13.1,4.5l-3.9-6.7c6.2-3.7,10.7-5.6,19.1-5.6c11.4,0,17.9,5.8,17.9,15.6l0.1,29.1h-9.4
		V150.5z M351.3,140.3v-4.1h-12c-6.3,0-9.2,1.7-9.2,5.9c0,4,3.3,6.6,8.6,6.6C345.6,148.7,350.8,145.1,351.3,140.3z"/>
	<path class="st0" d="M386.8,155.9V94h9.6v61.9H386.8z"/>
</g>
<g>
	<polygon class="st1" points="77.2,191.3 315.8,604.6 377.1,498.5 251.4,280.9 502.7,280.9 554.4,191.3 	"/>
</g>
<g>
	<polygon class="st2" points="437.1,602.5 622.8,280.9 502.7,280.9 377.1,498.5 	"/>
</g>
</svg>
